<?xml version="1.0" encoding="UTF-8" standalone="no"?>
<!DOCTYPE svg PUBLIC "-//W3C//DTD SVG 1.1//EN"
 "http://www.w3.org/Graphics/SVG/1.1/DTD/svg11.dtd">
<!-- Generated by graphviz version 16.1.0 (0)
 -->
<!-- Title: dependencies Pages: 1 -->
<svg width="586pt" height="565pt"
 viewBox="0.00 0.00 586.00 565.00" xmlns="http://www.w3.org/2000/svg" xmlns:xlink="http://www.w3.org/1999/xlink">
<g id="graph0" class="graph" transform="scale(1 1) rotate(0) translate(14.4 550.4)">
<title>dependencies</title>
<!-- btclib&#45;secp256k1&#45;&gt;libsecp256k1 -->
<g id="edge1" class="edge">
<title>btclib&#45;secp256k1&#45;&gt;libsecp256k1</title>
<path fill="none" stroke="#7d8590" stroke-dasharray="1,5" d="M351.2,-436C351.2,-436 351.2,-500 351.2,-500"/>
<text xml:space="preserve" text-anchor="middle" x="323.2" y="-465" font-family="Helvetica,sans-Serif" font-size="10.00" fill="#7d8590">bundled</text>
</g>
<!-- btclib&#45;secp256k1&#45;&gt;libsecp256k1&#45;zkp -->
<g id="edge2" class="edge">
<title>btclib&#45;secp256k1&#45;&gt;libsecp256k1&#45;zkp</title>
<path fill="none" stroke="#7d8590" stroke-dasharray="1,5" d="M381.2,-436C381.2,-436 381.2,-468 381.2,-468 381.2,-468 496.2,-468 496.2,-468 496.2,-468 496.2,-500 496.2,-500"/>
<text xml:space="preserve" text-anchor="middle" x="524.2" y="-481" font-family="Helvetica,sans-Serif" font-size="10.00" fill="#7d8590">bundled</text>
</g>
<!-- btclib&#45;ecc&#45;&gt;btclib&#45;secp256k1 -->
<g id="edge3" class="edge">
<title>btclib&#45;ecc&#45;&gt;btclib&#45;secp256k1</title>
<path fill="none" stroke="#7d8590" stroke-dasharray="5,2" d="M351.2,-336C351.2,-336 351.2,-393 351.2,-393"/>
<polygon fill="#7d8590" stroke="#7d8590" points="348.75,-391.49 351.2,-398.49 353.65,-391.49 348.75,-391.49"/>
</g>
<!-- btclib&#45;&gt;bitcoin&#45;core&#45;rpc -->
<g id="edge5" class="edge">
<title>btclib&#45;&gt;bitcoin&#45;core&#45;rpc</title>
<path fill="none" stroke="#7d8590" d="M290.2,-218C290.2,-218 206.2,-218 206.2,-218 206.2,-218 206.2,-393 206.2,-393"/>
<polygon fill="#7d8590" stroke="#7d8590" points="203.75,-391.49 206.2,-398.49 208.65,-391.49 203.75,-391.49"/>
</g>
<!-- btclib&#45;&gt;btclib&#45;ecc -->
<g id="edge4" class="edge">
<title>btclib&#45;&gt;btclib&#45;ecc</title>
<path fill="none" stroke="#7d8590" d="M351.2,-236C351.2,-236 351.2,-293 351.2,-293"/>
<polygon fill="#7d8590" stroke="#7d8590" points="348.75,-291.49 351.2,-298.49 353.65,-291.49 348.75,-291.49"/>
</g>
<!-- btclib&#45;wallet&#45;&gt;btclib&#45;mnemonics -->
<g id="edge12" class="edge">
<title>btclib&#45;wallet&#45;&gt;btclib&#45;mnemonics</title>
<path fill="none" stroke="#7d8590" d="M41.2,-136C41.2,-136 41.2,-393 41.2,-393"/>
<polygon fill="#7d8590" stroke="#7d8590" points="38.75,-391.49 41.2,-398.49 43.65,-391.49 38.75,-391.49"/>
</g>
<!-- btclib&#45;wallet&#45;&gt;btclib -->
<g id="edge6" class="edge">
<title>btclib&#45;wallet&#45;&gt;btclib</title>
<path fill="none" stroke="#7d8590" d="M81.2,-136C81.2,-136 81.2,-168 81.2,-168 81.2,-168 351.2,-168 351.2,-168 351.2,-168 351.2,-193 351.2,-193"/>
<polygon fill="#7d8590" stroke="#7d8590" points="348.75,-191.49 351.2,-198.49 353.65,-191.49 348.75,-191.49"/>
</g>
<!-- bitcoin&#45;node&#45;tests&#45;&gt;btclib&#45;wallet -->
<g id="edge7" class="edge">
<title>bitcoin&#45;node&#45;tests&#45;&gt;btclib&#45;wallet</title>
<path fill="none" stroke="#7d8590" d="M186.2,-36C186.2,-36 186.2,-50 186.2,-50 186.2,-50 41.2,-50 41.2,-50 41.2,-50 41.2,-93 41.2,-93"/>
<polygon fill="#7d8590" stroke="#7d8590" points="38.75,-91.49 41.2,-98.49 43.65,-91.49 38.75,-91.49"/>
</g>
<!-- btclib&#45;benchmarks&#45;&gt;btclib&#45;secp256k1 -->
<g id="edge11" class="edge">
<title>btclib&#45;benchmarks&#45;&gt;btclib&#45;secp256k1</title>
<path fill="none" stroke="#7d8590" d="M516.2,-36C516.2,-36 516.2,-418 516.2,-418 516.2,-418 419.2,-418 419.2,-418"/>
<polygon fill="#7d8590" stroke="#7d8590" points="420.71,-415.55 413.71,-418 420.71,-420.45 420.71,-415.55"/>
</g>
<!-- btclib&#45;benchmarks&#45;&gt;btclib&#45;wallet -->
<g id="edge10" class="edge">
<title>btclib&#45;benchmarks&#45;&gt;btclib&#45;wallet</title>
<path fill="none" stroke="#7d8590" d="M476.2,-36C476.2,-36 476.2,-83 476.2,-83 476.2,-83 81.2,-83 81.2,-83 81.2,-83 81.2,-93 81.2,-93"/>
<polygon fill="#7d8590" stroke="#7d8590" points="78.75,-91.49 81.2,-98.49 83.65,-91.49 78.75,-91.49"/>
</g>
<!-- btclib&#45;node&#45;&gt;btclib -->
<g id="edge8" class="edge">
<title>btclib&#45;node&#45;&gt;btclib</title>
<path fill="none" stroke="#7d8590" d="M351.2,-36C351.2,-36 351.2,-193 351.2,-193"/>
<polygon fill="#7d8590" stroke="#7d8590" points="348.75,-191.49 351.2,-198.49 353.65,-191.49 348.75,-191.49"/>
</g>
<!-- btclib&#45;node&#45;&gt;btclib&#45;wallet -->
<g id="edge9" class="edge">
<title>btclib&#45;node&#45;&gt;btclib&#45;wallet</title>
<path fill="none" stroke="#7d8590" d="M331.2,-36C331.2,-36 331.2,-66 331.2,-66 331.2,-66 61.2,-66 61.2,-66 61.2,-66 61.2,-93 61.2,-93"/>
<polygon fill="#7d8590" stroke="#7d8590" points="58.75,-91.49 61.2,-98.49 63.65,-91.49 58.75,-91.49"/>
</g>
<!-- libsecp256k1 -->
<g id="node1" class="node">
<title>libsecp256k1</title>
<path fill="none" stroke="#7d8590" stroke-dasharray="5,2" d="M400.4,-536C400.4,-536 302,-536 302,-536 296,-536 290,-530 290,-524 290,-524 290,-512 290,-512 290,-506 296,-500 302,-500 302,-500 400.4,-500 400.4,-500 406.4,-500 412.4,-506 412.4,-512 412.4,-512 412.4,-524 412.4,-524 412.4,-530 406.4,-536 400.4,-536"/>
<text xml:space="preserve" text-anchor="middle" x="351.2" y="-514.4" font-family="Helvetica,sans-Serif" font-size="12.00" fill="#7d8590">libsecp256k1</text>
</g>
<!-- libsecp256k1&#45;zkp -->
<g id="node2" class="node">
<title>libsecp256k1&#45;zkp</title>
<path fill="none" stroke="#7d8590" stroke-dasharray="5,2" d="M545.4,-536C545.4,-536 447,-536 447,-536 441,-536 435,-530 435,-524 435,-524 435,-512 435,-512 435,-506 441,-500 447,-500 447,-500 545.4,-500 545.4,-500 551.4,-500 557.4,-506 557.4,-512 557.4,-512 557.4,-524 557.4,-524 557.4,-530 551.4,-536 545.4,-536"/>
<text xml:space="preserve" text-anchor="middle" x="496.2" y="-514.4" font-family="Helvetica,sans-Serif" font-size="12.00" fill="#7d8590">libsecp256k1&#45;zkp</text>
</g>
<!-- btclib&#45;mnemonics -->
<g id="node3" class="node">
<title>btclib&#45;mnemonics</title>
<path fill="#1f6feb" stroke="#1f6feb" d="M110.4,-436C110.4,-436 12,-436 12,-436 6,-436 0,-430 0,-424 0,-424 0,-412 0,-412 0,-406 6,-400 12,-400 12,-400 110.4,-400 110.4,-400 116.4,-400 122.4,-406 122.4,-412 122.4,-412 122.4,-424 122.4,-424 122.4,-430 116.4,-436 110.4,-436"/>
<text xml:space="preserve" text-anchor="middle" x="61.2" y="-414.4" font-family="Helvetica,sans-Serif" font-size="12.00" fill="#ffffff">btclib&#45;mnemonics</text>
</g>
<!-- bitcoin&#45;core&#45;rpc -->
<g id="node4" class="node">
<title>bitcoin&#45;core&#45;rpc</title>
<path fill="#1f6feb" stroke="#1f6feb" d="M255.4,-436C255.4,-436 157,-436 157,-436 151,-436 145,-430 145,-424 145,-424 145,-412 145,-412 145,-406 151,-400 157,-400 157,-400 255.4,-400 255.4,-400 261.4,-400 267.4,-406 267.4,-412 267.4,-412 267.4,-424 267.4,-424 267.4,-430 261.4,-436 255.4,-436"/>
<text xml:space="preserve" text-anchor="middle" x="206.2" y="-414.4" font-family="Helvetica,sans-Serif" font-size="12.00" fill="#ffffff">bitcoin&#45;core&#45;rpc</text>
</g>
<!-- btclib&#45;secp256k1 -->
<g id="node5" class="node">
<title>btclib&#45;secp256k1</title>
<path fill="#1f6feb" stroke="#1f6feb" d="M400.4,-436C400.4,-436 302,-436 302,-436 296,-436 290,-430 290,-424 290,-424 290,-412 290,-412 290,-406 296,-400 302,-400 302,-400 400.4,-400 400.4,-400 406.4,-400 412.4,-406 412.4,-412 412.4,-412 412.4,-424 412.4,-424 412.4,-430 406.4,-436 400.4,-436"/>
<text xml:space="preserve" text-anchor="middle" x="351.2" y="-414.4" font-family="Helvetica,sans-Serif" font-size="12.00" fill="#ffffff">btclib&#45;secp256k1</text>
</g>
<!-- btclib&#45;ecc -->
<g id="node6" class="node">
<title>btclib&#45;ecc</title>
<path fill="#1f6feb" stroke="#1f6feb" d="M400.4,-336C400.4,-336 302,-336 302,-336 296,-336 290,-330 290,-324 290,-324 290,-312 290,-312 290,-306 296,-300 302,-300 302,-300 400.4,-300 400.4,-300 406.4,-300 412.4,-306 412.4,-312 412.4,-312 412.4,-324 412.4,-324 412.4,-330 406.4,-336 400.4,-336"/>
<text xml:space="preserve" text-anchor="middle" x="351.2" y="-314.4" font-family="Helvetica,sans-Serif" font-size="12.00" fill="#ffffff">btclib&#45;ecc</text>
</g>
<!-- btclib -->
<g id="node7" class="node">
<title>btclib</title>
<path fill="#1f6feb" stroke="#1f6feb" d="M400.4,-236C400.4,-236 302,-236 302,-236 296,-236 290,-230 290,-224 290,-224 290,-212 290,-212 290,-206 296,-200 302,-200 302,-200 400.4,-200 400.4,-200 406.4,-200 412.4,-206 412.4,-212 412.4,-212 412.4,-224 412.4,-224 412.4,-230 406.4,-236 400.4,-236"/>
<text xml:space="preserve" text-anchor="middle" x="351.2" y="-214.4" font-family="Helvetica,sans-Serif" font-size="12.00" fill="#ffffff">btclib</text>
</g>
<!-- btclib&#45;wallet -->
<g id="node8" class="node">
<title>btclib&#45;wallet</title>
<path fill="#1f6feb" stroke="#1f6feb" d="M110.4,-136C110.4,-136 12,-136 12,-136 6,-136 0,-130 0,-124 0,-124 0,-112 0,-112 0,-106 6,-100 12,-100 12,-100 110.4,-100 110.4,-100 116.4,-100 122.4,-106 122.4,-112 122.4,-112 122.4,-124 122.4,-124 122.4,-130 116.4,-136 110.4,-136"/>
<text xml:space="preserve" text-anchor="middle" x="61.2" y="-114.4" font-family="Helvetica,sans-Serif" font-size="12.00" fill="#ffffff">btclib&#45;wallet</text>
</g>
<!-- bitcoin&#45;node&#45;tests -->
<g id="node9" class="node">
<title>bitcoin&#45;node&#45;tests</title>
<path fill="#1f6feb" stroke="#1f6feb" d="M255.4,-36C255.4,-36 157,-36 157,-36 151,-36 145,-30 145,-24 145,-24 145,-12 145,-12 145,-6 151,0 157,0 157,0 255.4,0 255.4,0 261.4,0 267.4,-6 267.4,-12 267.4,-12 267.4,-24 267.4,-24 267.4,-30 261.4,-36 255.4,-36"/>
<text xml:space="preserve" text-anchor="middle" x="206.2" y="-14.4" font-family="Helvetica,sans-Serif" font-size="12.00" fill="#ffffff">bitcoin&#45;node&#45;tests</text>
</g>
<!-- btclib&#45;benchmarks -->
<g id="node10" class="node">
<title>btclib&#45;benchmarks</title>
<path fill="#1f6feb" stroke="#1f6feb" d="M545.4,-36C545.4,-36 447,-36 447,-36 441,-36 435,-30 435,-24 435,-24 435,-12 435,-12 435,-6 441,0 447,0 447,0 545.4,0 545.4,0 551.4,0 557.4,-6 557.4,-12 557.4,-12 557.4,-24 557.4,-24 557.4,-30 551.4,-36 545.4,-36"/>
<text xml:space="preserve" text-anchor="middle" x="496.2" y="-14.4" font-family="Helvetica,sans-Serif" font-size="12.00" fill="#ffffff">btclib&#45;benchmarks</text>
</g>
<!-- btclib&#45;node -->
<g id="node11" class="node">
<title>btclib&#45;node</title>
<path fill="#1f6feb" stroke="#1f6feb" d="M400.4,-36C400.4,-36 302,-36 302,-36 296,-36 290,-30 290,-24 290,-24 290,-12 290,-12 290,-6 296,0 302,0 302,0 400.4,0 400.4,0 406.4,0 412.4,-6 412.4,-12 412.4,-12 412.4,-24 412.4,-24 412.4,-30 406.4,-36 400.4,-36"/>
<text xml:space="preserve" text-anchor="middle" x="351.2" y="-14.4" font-family="Helvetica,sans-Serif" font-size="12.00" fill="#ffffff">btclib&#45;node</text>
</g>
</g>
</svg>
